<svg width="28" height="28" viewBox="0 0 28 28" fill="none" xmlns="http://www.w3.org/2000/svg">
<rect width="28" height="28" rx="9" fill="#202024"/>
<g filter="url(#filter0_f_7103_831)">
<path d="M21.6873 8.51178C20.354 6.56977 17.7468 5.58496 13.9394 5.58496H13.9332C10.1316 5.58602 7.53081 6.57126 6.20326 8.51327C5.09184 10.1388 4.94946 12.2113 4.94946 13.835C4.94946 15.4586 5.09184 17.5309 6.20326 19.1564C7.53081 21.0982 10.1316 22.0835 13.9334 22.085H13.9409C17.7481 22.085 20.3542 21.1004 21.6875 19.1584C22.8058 17.5292 22.9495 15.4578 22.9495 13.8352C22.9495 12.2126 22.8062 10.1412 21.6878 8.5122H21.6875L21.6873 8.51178Z" fill="url(#paint0_linear_7103_831)"/>
</g>
<path d="M21.4393 8.66855C20.1487 6.78881 17.6251 5.83545 13.9398 5.83545H13.9336C10.2539 5.83651 7.73645 6.79008 6.45165 8.66982C5.37592 10.2433 5.23804 12.2493 5.23804 13.8209C5.23804 15.3924 5.37592 17.3982 6.45165 18.9717C7.73666 20.8512 10.2541 21.805 13.9338 21.8063H13.9409C17.626 21.8063 20.1485 20.8531 21.4391 18.9734C22.5217 17.3965 22.6606 15.3914 22.6606 13.8209C22.6606 12.2503 22.5219 10.2454 21.4393 8.66855Z" fill="#09090A"/>
<g opacity="0.9">
<rect x="13.4375" y="12.3511" width="5.625" height="5.625" rx="2.8125" fill="#42A5F5"/>
<path d="M15.2974 13.9097L15.2089 14.3749H17.0586L16.9987 14.6758H15.1504L15.0605 15.1396H16.9103L16.8068 15.6703L16.061 15.9224L15.4144 15.6703L15.4593 15.4419H15.0047L14.8972 15.999L15.9657 16.4169L17.1975 15.999L17.3608 15.1591L17.3935 14.9906L17.6031 13.9097H15.2974Z" fill="white"/>
</g>
<g opacity="0.9">
<rect x="8.9375" y="12.3511" width="5.625" height="5.625" rx="2.8125" fill="#E44D26"/>
<g clip-path="url(#clip0_7103_831)">
<rect width="2.625" height="3" transform="translate(10.4375 13.6636)" fill="white"/>
<path d="M11.7499 16.5438L12.629 16.3015L12.7478 14.9936H11.1841L11.1452 14.5583H12.7866L12.8298 14.1316H10.67L10.791 15.4203H12.2791L12.2294 15.9735L11.7499 16.1021L11.2705 15.9735L11.2402 15.6175H10.8083L10.8709 16.3015L11.7499 16.5438V16.5438ZM10.0372 13.4219H13.4627L13.1538 16.8955L11.7499 17.2814L10.3461 16.8955L10.0372 13.4219V13.4219Z" fill="white"/>
<path d="M11.7499 16.5438L12.629 16.3015L12.7478 14.9936H11.1841L11.1452 14.5583H12.7866L12.8298 14.1316H10.67L10.791 15.4203H12.2791L12.2294 15.9735L11.7499 16.1021L11.2705 15.9735L11.2402 15.6175H10.8083L10.8709 16.3015L11.7499 16.5438V16.5438ZM10.0372 13.4219H13.4627L13.1538 16.8955L11.7499 17.2814L10.3461 16.8955L10.0372 13.4219V13.4219Z" fill="#E44D26"/>
</g>
</g>
<g opacity="0.9">
<rect x="11.1875" y="8.60107" width="5.625" height="5.625" rx="2.8125" fill="#E5D130"/>
<path d="M12.4974 12.0778L12.8463 11.8702C12.9135 11.9876 12.9748 12.0869 13.1217 12.0869C13.2624 12.0869 13.3511 12.033 13.3511 11.822V10.3891H13.7795V11.8279C13.7795 12.2643 13.5195 12.4631 13.1401 12.4631C13.0059 12.4702 12.8728 12.4372 12.7581 12.3684C12.6434 12.2996 12.5525 12.1983 12.4975 12.0777L12.4974 12.0778ZM14.0123 12.0325L14.3611 11.8338C14.3999 11.9112 14.4601 11.9763 14.5348 12.0216C14.6095 12.0668 14.6956 12.0904 14.7834 12.0897C14.9609 12.0897 15.074 12.0023 15.074 11.8819C15.074 11.7374 14.9577 11.6862 14.7619 11.6016L14.6551 11.5569C14.3461 11.4276 14.1411 11.265 14.1411 10.9218C14.1411 10.6057 14.3859 10.3649 14.7683 10.3649C14.8923 10.3561 15.0161 10.3833 15.1244 10.4433C15.2327 10.5032 15.3206 10.5932 15.3772 10.7021L15.0436 10.9128C15.0217 10.8588 14.9837 10.8126 14.9345 10.7804C14.8853 10.7481 14.8273 10.7313 14.7682 10.7322C14.7425 10.7297 14.7164 10.7324 14.6918 10.7403C14.6672 10.7482 14.6445 10.7611 14.6252 10.778C14.6059 10.795 14.5904 10.8158 14.5798 10.839C14.5691 10.8622 14.5634 10.8874 14.5632 10.9128C14.5632 11.0393 14.6428 11.0904 14.8262 11.1687L14.9333 11.2139C15.2974 11.3674 15.5024 11.524 15.5024 11.8761C15.5024 12.2554 15.1995 12.4632 14.7926 12.4632C14.3948 12.4632 14.1378 12.2765 14.0123 12.0326" fill="#09090A"/>
</g>
<defs>
<filter id="filter0_f_7103_831" x="0.673929" y="1.30943" width="26.5511" height="25.0511" filterUnits="userSpaceOnUse" color-interpolation-filters="sRGB">
<feFlood flood-opacity="0" result="BackgroundImageFix"/>
<feBlend mode="normal" in="SourceGraphic" in2="BackgroundImageFix" result="shape"/>
<feGaussianBlur stdDeviation="2.13777" result="effect1_foregroundBlur_7103_831"/>
</filter>
<linearGradient id="paint0_linear_7103_831" x1="4.94925" y1="13.8347" x2="22.9492" y2="13.8347" gradientUnits="userSpaceOnUse">
<stop stop-color="#CE4623"/>
<stop offset="0.46875" stop-color="#CFBD2C"/>
<stop offset="1" stop-color="#3C95DD" stop-opacity="0.25"/>
</linearGradient>
<clipPath id="clip0_7103_831">
<rect width="2.625" height="3" fill="white" transform="translate(10.4375 13.6636)"/>
</clipPath>
</defs>
</svg>
